<?xml version="1.0" encoding="utf-8" ?>
<svg xmlns="http://www.w3.org/2000/svg" xmlns:ev="http://www.w3.org/2001/xml-events" xmlns:xlink="http://www.w3.org/1999/xlink" baseProfile="full" height="16px" version="1.1" viewBox="0 0 16 16" width="16px">
  <defs/>
  <g id="x282828_r40_g40_b40_a1.0">
    <path d="M 0,2 1,2 1,1 14,1 14,2 15,2 15,15 14,15 14,16 1,16 1,15 0,15 z M 13,8 13,6 14,6 14,4 11,4 11,5 9,5 9,6 8,6 8,7 7,7 7,6 6,6 6,5 4,5 4,4 1,4 1,6 2,6 2,8 3,8 3,9 5,9 5,10 4,10 4,11 3,11 3,13 6,13 6,12 7,12 7,11 8,11 8,12 9,12 9,13 11,13 12,13 12,11 11,11 11,10 10,10 10,9 12,9 12,8 z" fill="#282828" fill-opacity="1.0" id="x282828_r40_g40_b40_a1.0_shape1"/>
  </g>
</svg>
