<?xml version="1.0" encoding="utf-8" ?>
<svg xmlns="http://www.w3.org/2000/svg" xmlns:ev="http://www.w3.org/2001/xml-events" xmlns:xlink="http://www.w3.org/1999/xlink" baseProfile="full" height="16px" version="1.1" viewBox="0 0 16 16" width="16px">
  <defs/>
  <g id="x282828_r40_g40_b40_a1.0">
    <path d="M 12,2 10,2 10,3 9,3 9,4 7,4 7,3 6,3 6,2 4,2 4,5 3,5 3,10 4,10 4,11 5,11 5,12 7,12 7,13 6,13 6,15 5,15 5,14 4,14 4,13 3,13 3,15 4,15 4,16 1,16 1,15 0,15 0,13 0,8 0,2 1,2 1,1 14,1 14,2 15,2 15,15 14,15 14,16 10,16 10,13 9,13 9,12 11,12 11,11 12,11 12,10 13,10 13,5 12,5 z" fill="#282828" fill-opacity="1.0" id="x282828_r40_g40_b40_a1.0_shape1"/>
  </g>
</svg>
