<?xml version="1.0" encoding="utf-8" ?>
<svg xmlns="http://www.w3.org/2000/svg" xmlns:ev="http://www.w3.org/2001/xml-events" xmlns:xlink="http://www.w3.org/1999/xlink" baseProfile="full" height="16px" version="1.1" viewBox="0 0 16 16" width="16px">
  <defs/>
  <g id="x282828_r40_g40_b40_a1.0">
    <path d="M 15,15 14,15 14,16 1,16 1,15 0,15 0,2 1,2 1,1 6,1 14,1 14,2 15,2 z M 11,8 13,8 13,3 11,3 11,4 10,4 10,5 9,5 9,4 8,4 8,3 6,3 6,8 8,8 8,5 9,5 9,6 10,6 10,5 11,5 z M 8,9 8,14 12,14 12,13 13,13 13,11 12,11 12,10 10,10 10,9 z M 6,14 6,13 7,13 7,12 7,10 6,10 6,9 2,9 2,10 2,13 2,14 4,14 z M 5,3 3,3 3,8 5,8 z" fill="#282828" fill-opacity="1.0" id="x282828_r40_g40_b40_a1.0_shape1"/>
    <path d="M 4,10 6,10 6,13 4,13 z" fill="#282828" fill-opacity="1.0" id="x282828_r40_g40_b40_a1.0_shape2"/>
    <path d="M 10,13 10,11 12,11 12,13 z" fill="#282828" fill-opacity="1.0" id="x282828_r40_g40_b40_a1.0_shape3"/>
  </g>
</svg>
