<?xml version="1.0" encoding="utf-8" ?>
<svg xmlns="http://www.w3.org/2000/svg" xmlns:ev="http://www.w3.org/2001/xml-events" xmlns:xlink="http://www.w3.org/1999/xlink" baseProfile="full" height="16px" version="1.1" viewBox="0 0 16 16" width="16px">
  <defs/>
  <g id="x282828_r40_g40_b40_a1.0">
    <path d="M 14,15 13,15 13,16 2,16 2,15 1,15 1,6 4,6 4,5 5,5 5,6 6,6 10,6 10,5 11,5 11,6 14,6 z M 3,9 2,9 2,14 4,14 4,13 5,13 5,14 10,14 10,13 11,13 11,14 12,14 13,14 13,9 12,9 12,7 9,7 9,8 6,8 6,7 3,7 z" fill="#282828" fill-opacity="1.0" id="x282828_r40_g40_b40_a1.0_shape1"/>
    <path d="M 11,5 11,4 10,4 10,5 5,5 5,4 4,4 4,5 1,5 1,4 0,4 0,2 1,2 1,1 3,1 9,1 14,1 14,2 15,2 15,4 14,4 14,5 z" fill="#282828" fill-opacity="1.0" id="x282828_r40_g40_b40_a1.0_shape2"/>
    <path d="M 5,12 5,11 6,11 6,10 7,10 7,9 8,9 8,10 9,10 9,11 10,11 10,12 9,12 8,12 8,13 7,13 7,12 6,12 z" fill="#282828" fill-opacity="1.0" id="x282828_r40_g40_b40_a1.0_shape3"/>
  </g>
</svg>
