<?xml version="1.0" encoding="utf-8" ?>
<svg xmlns="http://www.w3.org/2000/svg" xmlns:ev="http://www.w3.org/2001/xml-events" xmlns:xlink="http://www.w3.org/1999/xlink" baseProfile="full" height="16px" version="1.1" viewBox="0 0 16 16" width="16px">
  <defs/>
  <g id="x282828_r40_g40_b40_a1.0">
    <path d="M 10,2 10,3 12,3 12,4 13,4 13,6 14,6 14,11 13,11 13,13 12,13 12,14 10,14 10,15 5,15 5,14 3,14 3,13 2,13 2,11 1,11 1,6 2,6 2,4 3,4 3,3 5,3 5,2 z M 5,6 5,7 6,7 6,6 9,6 9,5 6,5 6,6 z M 9,8 7,8 7,10 8,10 8,9 9,9 9,8 10,8 10,6 9,6 z M 8,12 8,11 7,11 7,12 z" fill="#282828" fill-opacity="1.0" id="x282828_r40_g40_b40_a1.0_shape1"/>
  </g>
</svg>
