<?xml version="1.0" encoding="utf-8" ?>
<svg xmlns="http://www.w3.org/2000/svg" xmlns:ev="http://www.w3.org/2001/xml-events" xmlns:xlink="http://www.w3.org/1999/xlink" baseProfile="full" height="16px" version="1.1" viewBox="0 0 16 16" width="16px">
  <defs/>
  <g id="x282828_r40_g40_b40_a1.0">
    <path d="M 12,3 12,2 10,2 10,3 9,3 9,4 8,4 8,6 7,6 7,7 7,8 6,8 6,9 4,9 4,10 2,10 2,9 1,9 1,8 0,8 0,2 1,2 1,1 5,1 9,1 14,1 14,2 15,2 15,15 14,15 14,16 1,16 1,15 0,15 0,11 1,11 1,13 2,13 2,14 3,14 3,15 5,15 5,14 6,14 6,13 7,13 7,10 8,10 8,9 10,9 10,8 12,8 12,7 13,7 13,6 14,6 14,4 13,4 13,3 z" fill="#282828" fill-opacity="1.0" id="x282828_r40_g40_b40_a1.0_shape1"/>
    <path d="M 11,3 12,3 12,4 11,4 10,4 10,3 z" fill="#282828" fill-opacity="1.0" id="x282828_r40_g40_b40_a1.0_shape2"/>
    <path d="M 10,6 9,6 9,5 9,4 10,4 10,5 z" fill="#282828" fill-opacity="1.0" id="x282828_r40_g40_b40_a1.0_shape3"/>
    <path d="M 13,4 13,6 12,6 12,4 z" fill="#282828" fill-opacity="1.0" id="x282828_r40_g40_b40_a1.0_shape4"/>
    <path d="M 10,7 10,6 11,6 12,6 12,7 11,7 z" fill="#282828" fill-opacity="1.0" id="x282828_r40_g40_b40_a1.0_shape5"/>
    <path d="M 5,11 6,11 6,12 6,13 5,13 5,12 z" fill="#282828" fill-opacity="1.0" id="x282828_r40_g40_b40_a1.0_shape6"/>
    <path d="M 5,14 3,14 3,13 5,13 z" fill="#282828" fill-opacity="1.0" id="x282828_r40_g40_b40_a1.0_shape7"/>
    <path d="M 4,11 4,10 5,10 5,11 z" fill="#282828" fill-opacity="1.0" id="x282828_r40_g40_b40_a1.0_shape8"/>
    <path d="M 2,12 3,12 3,13 2,13 z" fill="#282828" fill-opacity="1.0" id="x282828_r40_g40_b40_a1.0_shape9"/>
  </g>
</svg>
