<?xml version="1.0" encoding="utf-8" ?>
<svg xmlns="http://www.w3.org/2000/svg" xmlns:ev="http://www.w3.org/2001/xml-events" xmlns:xlink="http://www.w3.org/1999/xlink" baseProfile="full" height="16px" version="1.1" viewBox="0 0 16 16" width="16px">
  <defs/>
  <g id="x282828_r40_g40_b40_a1.0">
    <path d="M 0,2 1,2 1,1 14,1 14,2 15,2 15,15 14,15 14,16 1,16 1,15 0,15 z M 11,3 7,3 7,4 6,4 6,7 5,7 5,6 3,6 3,5 2,5 2,4 1,4 1,7 2,7 2,8 1,8 1,9 2,9 2,10 3,10 3,11 4,11 4,12 1,12 1,13 2,13 2,14 5,14 8,14 8,13 10,13 10,12 11,12 11,11 12,11 12,7 13,7 13,6 14,6 14,5 12,5 12,4 11,4 z" fill="#282828" fill-opacity="1.0" id="x282828_r40_g40_b40_a1.0_shape1"/>
  </g>
</svg>
