<?xml version="1.0" encoding="utf-8" ?>
<svg xmlns="http://www.w3.org/2000/svg" xmlns:ev="http://www.w3.org/2001/xml-events" xmlns:xlink="http://www.w3.org/1999/xlink" baseProfile="full" height="16px" version="1.1" viewBox="0 0 16 16" width="16px">
  <defs/>
  <g id="x282828_r40_g40_b40_a1.0">
    <path d="M 14,2 14,3 15,3 15,14 14,14 14,15 1,15 1,14 0,14 0,12 0,3 1,3 1,2 z M 4,12 6,12 6,11 8,11 8,10 10,10 10,9 11,9 11,8 10,8 10,7 9,7 8,7 8,6 7,6 6,6 6,5 5,5 4,5 z" fill="#282828" fill-opacity="1.0" id="x282828_r40_g40_b40_a1.0_shape1"/>
  </g>
</svg>
